<svg data-v-d3f97b9e="" xmlns="http://www.w3.org/2000/svg" viewBox="0 0 44.25456448065788 60"><!----><!----><!----><!----><g data-v-d3f97b9e="" id="d72efbaf-48b0-4531-852d-fad0fe82ee9c" transform="matrix(0.606002151966095,0,0,0.606002151966095,-0.014473776333034039,0.0057896520011126995)" stroke="none" fill="black"><style>.st0{stroke:#fff;stroke-width:1.5;stroke-linecap:round;stroke-linejoin:round;stroke-miterlimit:10}</style><path d="M29.9 13.5h.1c.8-.1 1.5-.8 1.4-1.6l-.8-10.5c0-.8-.8-1.5-1.6-1.4-.8.1-1.5.8-1.4 1.6l.8 10.4c.1.9.7 1.5 1.5 1.5zM37.4 13c.7 0 1.4-.5 1.5-1.3l.8-5c.1-.8-.4-1.6-1.3-1.7-.8-.1-1.6.4-1.7 1.3l-.8 5c-.1.8.4 1.6 1.3 1.7h.2zM23.3 14.4c.2 0 .4 0 .6-.1.8-.3 1.1-1.2.8-2l-2.1-4.7c-.3-.8-1.3-1.1-2-.8-.8.3-1.1 1.2-.8 2l2.1 4.7c.3.6.8.9 1.4.9zM61.6 47.6c.2 0 .3 0 .5-.1l9.9-3.2c.8-.3 1.2-1.1 1-1.9-.3-.8-1.1-1.2-1.9-1l-9.9 3.2c-.8.3-1.2 1.1-1 1.9.2.7.8 1.1 1.4 1.1zM63.4 56.1h.1l5-.4c.8-.1 1.5-.8 1.4-1.7-.1-.8-.8-1.5-1.7-1.4l-5 .4c-.8.1-1.5.8-1.4 1.7.1.8.8 1.4 1.6 1.4zM59.1 41.4c.3 0 .7-.1.9-.3l4.1-3.1c.7-.5.8-1.5.3-2.2-.5-.7-1.5-.8-2.2-.3l-4.1 3.1c-.7.5-.8 1.5-.3 2.2.4.4.9.6 1.3.6zM48.2 99c.2 0 .4 0 .6-.1.8-.3 1.2-1.2.8-2l-4-9.6c-.3-.8-1.2-1.2-2-.8-.8.3-1.2 1.2-.8 2l4 9.6c.2.5.8.9 1.4.9zM38 97.1h.2c.8-.1 1.4-.9 1.3-1.8l-.8-5c-.1-.8-.9-1.4-1.8-1.3-.8.1-1.4.9-1.3 1.8l.8 5c.2.8.9 1.3 1.6 1.3zM53.6 90.2c.4 0 .7-.1 1-.4.6-.6.7-1.5.1-2.2l-3.4-3.8c-.6-.6-1.5-.7-2.2-.1-.6.6-.7 1.5-.1 2.2l3.4 3.8c.3.4.8.5 1.2.5zM69 78.8c.6 0 1.1-.3 1.4-.8.4-.7.1-1.7-.6-2.1L60.6 71c-.8-.4-1.7-.1-2.1.6-.4.7-.1 1.7.6 2.1l9.2 4.9c.2.2.5.2.7.2zM60 83.9c.4 0 .9-.2 1.2-.5.6-.6.5-1.6-.2-2.2l-3.8-3.3c-.6-.6-1.6-.5-2.2.1-.6.6-.5 1.6.2 2.2l3.8 3.3c.3.3.7.4 1 .4zM67.5 68.6c.7 0 1.4-.5 1.5-1.3.1-.8-.5-1.6-1.3-1.7l-5.1-.8c-.8-.1-1.6.5-1.7 1.3-.1.8.5 1.6 1.3 1.7l5.1.8h.2zM52.6 24c.3 0 .6-.1.9-.3l8.4-6.1c.7-.5.8-1.5.3-2.1-.5-.7-1.5-.8-2.1-.3l-8.4 6.1c-.7.5-.8 1.5-.3 2.1.3.4.8.6 1.2.6zM57 30.1c.2 0 .4 0 .6-.1l4.7-2c.8-.3 1.1-1.2.8-2-.3-.8-1.2-1.1-2-.8l-4.7 2c-.8.3-1.1 1.2-.8 2 .2.6.8.9 1.4.9zM48.4 18.9c.5 0 1-.2 1.3-.7l2.9-4.2c.5-.7.3-1.7-.4-2.1-.7-.5-1.7-.3-2.1.4l-2.9 4.2c-.5.7-.3 1.7.4 2.1.2.2.5.3.8.3zM.8 58c-.8 2.1-1.6 6 1 9.1.3-2.2 1.5-3.5 1.5-3.6.6-.6 1.5-.6 2.1-.1.6.6.7 1.5.1 2.2 0 0-1.2 1.4-.5 4.2.2.4.9 1.2 1.8 2.2.6-1.2 1.5-2.1 2.6-2.7 2.9-1.6 6.3-.4 6.4-.3.8.3 1.2 1.2.9 2-.3.8-1.2 1.2-2 .9 0 0-2.2-.8-3.9.2-.7.4-1.2 1-1.6 2 1.6 1 3.6 1.6 5.9 1.2.4-.1.9 0 1.2.3 0 0 3 2.3 5.7 1.7 1.4-.3 2.6-1.4 3.5-3.2.1-.3.4-.5.6-.6V30.1l-2-2.5c-1.9-2.4-5.2-3.6-8.2-3-2.2.4-3.6 1.6-4.2 3.4l-.2 4.6c0 .8-.7 1.5-1.5 1.5h-.1c-.8 0-1.5-.8-1.5-1.6l.1-2.2c-1.5 1.2-3.5 2.9-4.2 5-.4 1.3-.4 2.5 0 3.9 1.3-.4 3.2-.5 5.9.6.8.3 1.2 1.2.8 2-.2.6-.8.9-1.4.9-.2 0-.4 0-.6-.1-3-1.2-4.3-.4-4.4-.3-.3.3-7.2 7-3.3 12.3 1.4.8 4.8 2.5 6.7 1.2.7-.5 1.7-.3 2.1.4.5.7.3 1.7-.4 2.1-1.1.8-2.3 1-3.5 1-2.1.1-4-.7-5.4-1.3zm22.5-24.6s-2.2-.8-3.9.2c-.9.5-1.5 1.5-1.9 2.9-.2.7-.8 1.2-1.5 1.2h-.3c-.8-.2-1.3-1-1.2-1.8.5-2.3 1.7-4 3.4-4.9 2.9-1.6 6.3-.4 6.4-.3.8.3 1.2 1.2.9 2-.2.6-1.1 1-1.9.7zm-4 26.8c.5-.7 1.4-.9 2.1-.5.7.5.9 1.4.5 2.1 0 0-2.2 3.5-.3 5 .7.5.8 1.5.2 2.2-.3.4-.7.6-1.2.6-.3 0-.7-.1-1-.3-3.1-2.7-1.6-7-.3-9.1zm-4.4-8.3s4.1-2 3.9-5.4c-.8.2-1.8.3-2.8.3-.8 0-1.5-.7-1.5-1.5s.7-1.5 1.5-1.6c4.3-.1 6-1.9 6.1-2.1.5-.6 1.5-.7 2.1-.2.7.5.8 1.5.2 2.2-.1.1-.9 1-2.6 1.9.8 4.8-3.2 8.1-5.6 9.2-.2.1-.4.1-.7.1-.6 0-1.1-.3-1.4-.9-.3-.7 0-1.6.8-2zm-4.1-1c-4-1.4-6.3-.1-6.4-.1-.2.2-.5.2-.8.2-.5 0-1-.3-1.3-.7-.5-.7-.2-1.7.5-2.1.1-.1 3.4-2.1 9-.3.8.3 1.2 1.1 1 1.9-.3 1-1.2 1.4-2 1.1zM54.3 54.8c4.3-5.4-2.9-12.2-3.2-12.5-.5-.5-.6-1.2-.3-1.8 1-1.8 1.2-3.6.6-5.2-1.4-3.9-6.6-6.2-6.6-6.2-.4-.2-.7-.5-.9-1-.6-2-2-3.1-4.2-3.6-3.1-.6-6.4.6-8.2 3l-2 2.5v43.2c.3.1.5.3.6.6.9 1.8 2.1 2.9 3.5 3.2 2.7.6 5.7-1.6 5.7-1.7.4-.3.8-.4 1.2-.3 6 1.2 10.3-5.5 10.3-5.6.1-.2.3-.4.5-.5 7.2-4.1 3-12.2 2.8-12.6-.3-.3-.2-1 .2-1.5zm-8-4.2l-4.9 6.6-4.9-6.6c-.9-1.3-1.1-3-.3-4.3.8-1.4 2.6-1.6 3.8-.5l1.5 1.5 1.5-1.5c1.1-1.1 3-.9 3.8.5.5 1.3.4 3-.5 4.3z"></path></g><!----></svg>